<?xml version="1.0" encoding="utf-8"?>
<!-- Generator: Adobe Illustrator 26.0.2, SVG Export Plug-In . SVG Version: 6.00 Build 0)  -->
<svg version="1.1" id="Layer_1" xmlns="http://www.w3.org/2000/svg" xmlns:xlink="http://www.w3.org/1999/xlink" x="0px" y="0px"
	 viewBox="0 0 500 121" style="enable-background:new 0 0 500 121;" xml:space="preserve">
<style type="text/css">
	.st0{fill:#F2F0F7;}
	.st1{fill:#CBC9E2;}
	.st2{fill:#9E9AC8;}
	.st3{fill:#756BB1;}
	.st4{fill:#54278F;}
	.st5{fill:none;stroke:#000000;stroke-linejoin:round;}
	.st6{fill:#0B0A0B;}
	.st7{font-family:'Helvetica';}
	.st8{font-size:13px;}
</style>
<g id="layer11">
	<path class="st0" d="M1,100.6l0.1-19.3h63.8l-0.1,19.3H1z"/>
	<path class="st1" d="M64.8,100.6v-19h68.9v19H64.8z"/>
	<path class="st2" d="M133.7,100.6v-19h34.5v19H133.7z"/>
	<path class="st3" d="M168.1,100.6v-19h68.9v19H168.1z"/>
	<path class="st4" d="M237.1,100.6v-19H499v19H237.1z"/>
</g>
<g id="layer12">
	<path class="st5" d="M1.1,80.3L1,106.6"/>
	<path class="st5" d="M64.8,81.6v24.9"/>
	<path class="st5" d="M133.7,81.6v24.9"/>
	<path class="st5" d="M168.1,81.6v24.9"/>
	<path class="st5" d="M237.1,81.6v24.9"/>
	<path class="st5" d="M499,81.6v25.9"/>
</g>
<g id="layer13">
	<text transform="matrix(1 0 0 1 61.185 119.6)" class="st6 st7 st8">5</text>
	<text transform="matrix(1 0 0 1 130.085 119.6)" class="st6 st7 st8">9</text>
	<text transform="matrix(1 0 0 1 161.3493 119.6)" class="st6 st7 st8">11</text>
	<text transform="matrix(1 0 0 1 228.87 119.6)" class="st6 st7 st8">15</text>
</g>
</svg>
